<svg width="50" height="50" viewBox="0 0 50 50" fill="none" xmlns="http://www.w3.org/2000/svg">
<g clip-path="url(#clip0_210_421)">
<path fill-rule="evenodd" clip-rule="evenodd" d="M42.688 43.7469C41.771 45.2572 40.8539 46.39 39.7481 47.4415C38.5075 48.5473 38.1568 49.5183 35.2979 49.8962C33.2751 50.2738 31.522 49.5183 30.8477 49.222C28.8249 48.2776 27.7727 47.9813 26.5593 47.9813C25.3726 47.9813 24.3747 48.278 22.3788 49.195C21.7585 49.5183 20.0863 50.2469 18.0365 49.8693C15.9328 49.4917 14.8539 48.6826 14.0718 48.0083C12.4535 46.5788 11.2398 45.2303 10.134 43.666L42.688 43.7469Z" fill="#1E71B8"/>
<path fill-rule="evenodd" clip-rule="evenodd" d="M5.57617 18.583C6.52015 16.4523 7.76082 15.0228 9.00148 14.0249C12.1571 11.4357 17.3085 11.2739 19.682 11.8942C21.6239 12.3797 22.9994 13.5664 25.184 13.5664C27.4766 13.5664 28.7978 12.4066 30.6052 11.8942C32.9786 11.3008 38.1571 11.4896 41.5284 14.0788C42.5264 14.834 43.443 15.8589 43.9554 16.4253C42.7421 17.3154 42.0135 17.9627 41.4202 18.583H5.57617Z" fill="#6FB353"/>
<path fill-rule="evenodd" clip-rule="evenodd" d="M41.4205 18.583C40.8541 19.2033 40.4496 19.7967 39.9911 20.6328C39.452 21.6038 38.8043 22.9253 38.6425 24.9212H3.98486C4.01183 24.5975 4.03881 24.2469 4.09275 23.8963C4.4164 21.7656 4.92885 20.0125 5.57615 18.583H41.4205Z" fill="#FFF22D"/>
<path fill-rule="evenodd" clip-rule="evenodd" d="M38.6426 24.9211C38.6156 25.5322 38.6156 26.1441 38.6426 26.7552C38.7235 28.2386 39.2359 29.8838 39.9102 31.2054L4.6592 31.1245C4.17372 28.9938 3.90401 26.8091 3.98492 24.9211H38.6426Z" fill="#E0922F"/>
<path fill-rule="evenodd" clip-rule="evenodd" d="M39.9098 31.2054C40.1858 31.7777 40.5203 32.32 40.9078 32.8236C43.2273 35.7904 44.2252 35.7904 46.0322 36.7074C45.8977 37.0307 45.7899 37.3278 45.6546 37.5975L6.70897 37.5166C5.95378 35.8713 5.17163 33.5518 4.65918 31.1245L39.9098 31.2054Z" fill="#CC2229"/>
<path fill-rule="evenodd" clip-rule="evenodd" d="M45.6546 37.5975C44.5222 40.2407 43.6049 42.1822 42.6878 43.7469L10.1343 43.666C9.05546 42.0747 8.0845 40.3212 6.97869 38.1366C6.89778 37.9478 6.7899 37.732 6.70898 37.5166L45.6546 37.5975Z" fill="#5A308D"/>
<path fill-rule="evenodd" clip-rule="evenodd" d="M34.3538 3.82987C34.165 5.17842 33.4907 6.90456 32.4119 8.01037C31.2518 9.25103 29.4451 10.5996 28.3659 11.2739C27.7725 11.6514 26.2352 11.7054 24.9679 11.8402C24.8061 10.7075 24.7791 9.73651 25.1298 8.68464C25.5883 7.44398 26.182 5.6639 27.1256 4.42323C28.2854 2.88589 29.6069 1.83402 30.3351 1.45643C31.3065 0.970954 32.9247 0.242738 34.3268 0C34.3812 1.24066 34.57 2.64315 34.3538 3.82987Z" fill="#6FB353"/>
</g>
<defs>
<clipPath id="clip0_210_421">
<rect width="50" height="50" fill="white"/>
</clipPath>
</defs>
</svg>
