<svg width="50" height="50" viewBox="0 0 50 50" fill="none" xmlns="http://www.w3.org/2000/svg">
<path d="M25 16.9233L17.1329 3.03951C17.3941 2.77358 17.6946 2.59914 17.9951 2.48189C15.6754 3.24541 14.6109 5.85058 14.6109 5.85058L0.238773 31.2073C0.0365543 32.0024 -0.0196152 32.72 0.00566219 33.3522H15.6922L25 16.9233Z" fill="#34A853"/>
<path d="M25 16.9233L34.3078 33.3522H49.9944C50.0196 32.72 49.9635 32.0024 49.7611 31.2073L35.3892 5.85058C35.3892 5.85058 34.3219 3.24541 32.0047 2.48189C32.3025 2.59914 32.6057 2.77358 32.8669 3.03951L25 16.9233Z" fill="#FBBC05"/>
<path d="M24.9997 16.9249L32.8668 3.0412C32.6056 2.77524 32.3022 2.6008 32.0046 2.48355C31.6618 2.37203 31.294 2.29768 30.8951 2.27765H30.4793H19.5201H19.1043C18.7083 2.29481 18.3376 2.36917 17.9948 2.48355C17.6972 2.6008 17.3938 2.77524 17.1326 3.0412L24.9997 16.9249Z" fill="#188038"/>
<path d="M15.6948 33.3524L7.91758 47.079C7.91758 47.079 7.65919 46.9531 7.30811 46.6928C8.41192 47.5423 9.48482 47.7223 9.48482 47.7223H40.0292C41.7143 47.7223 42.0655 47.079 42.0655 47.079C42.071 47.0761 42.0739 47.0731 42.0794 47.0704L34.308 33.3524H15.6948Z" fill="#4285F4"/>
<path d="M15.6955 33.3524H0.0090332C0.087684 35.2171 0.896583 36.3066 0.896583 36.3066L1.4864 37.3302C1.52854 37.3904 1.55382 37.4248 1.55382 37.4248L2.83737 39.6781L5.71906 44.6941C5.80333 44.897 5.90164 45.0828 6.00557 45.2601C6.04487 45.3203 6.08138 45.386 6.12352 45.4433C6.13475 45.4603 6.14598 45.4776 6.15723 45.4947C6.51394 45.9979 6.91276 46.3869 7.31158 46.6928C7.66267 46.9561 7.92108 47.079 7.92108 47.079L15.6955 33.3524Z" fill="#1967D2"/>
<path d="M34.3079 33.3524H49.9942C49.9155 35.2171 49.1067 36.3066 49.1067 36.3066L48.5168 37.3302C48.4748 37.3904 48.4496 37.4248 48.4496 37.4248L47.1659 39.6781L44.2842 44.6941C44.1999 44.897 44.1017 45.0828 43.9978 45.2601C43.9585 45.3203 43.9219 45.386 43.8798 45.4433C43.8685 45.4603 43.8573 45.4776 43.846 45.4947C43.4893 45.9979 43.0906 46.3869 42.6917 46.6928C42.3407 46.9561 42.0822 47.079 42.0822 47.079L34.3079 33.3524Z" fill="#EA4335"/>
</svg>
