<svg width="50" height="50" viewBox="0 0 50 50" fill="none" xmlns="http://www.w3.org/2000/svg">
<g clip-path="url(#clip0_210_430)">
<path d="M16.6666 50C21.2666 50 24.9999 46.2667 24.9999 41.6667V33.3334H16.6666C12.0666 33.3334 8.33325 37.0667 8.33325 41.6667C8.33325 46.2667 12.0666 50 16.6666 50Z" fill="#0ACF83"/>
<path d="M8.33325 25C8.33325 20.4 12.0666 16.6666 16.6666 16.6666H24.9999V33.3333H16.6666C12.0666 33.3333 8.33325 29.6 8.33325 25Z" fill="#A259FF"/>
<path d="M8.33325 8.33333C8.33325 3.73333 12.0666 0 16.6666 0H24.9999V16.6667H16.6666C12.0666 16.6667 8.33325 12.9333 8.33325 8.33333Z" fill="#F24E1E"/>
<path d="M25 0H33.3333C37.9333 0 41.6667 3.73333 41.6667 8.33333C41.6667 12.9333 37.9333 16.6667 33.3333 16.6667H25V0Z" fill="#FF7262"/>
<path d="M41.6667 25C41.6667 29.6 37.9333 33.3333 33.3333 33.3333C28.7333 33.3333 25 29.6 25 25C25 20.4 28.7333 16.6666 33.3333 16.6666C37.9333 16.6666 41.6667 20.4 41.6667 25Z" fill="#1ABCFE"/>
</g>
<defs>
<clipPath id="clip0_210_430">
<rect width="50" height="50" fill="white"/>
</clipPath>
</defs>
</svg>
