<svg width="50" height="50" viewBox="0 0 50 50" fill="none" xmlns="http://www.w3.org/2000/svg">
<g clip-path="url(#clip0_1_49)">
<path d="M41.3 44C41.8 43.6 42.2 43.2 42.6 42.7C52.4 32.9 52.4 17.1 42.6 7.3C32.8 -2.5 17 -2.5 7.2 7.3C6.8 7.8 6.4 8.2 6 8.7L41.3 44Z" fill="#5E6AD2"/>
<path d="M38.3 46.2L3.8 11.7C3.1 12.8 2.5 13.9 2 15.1L34.9 48C36.1 47.5 37.2 46.9 38.3 46.2Z" fill="#5E6AD2"/>
<path d="M31.1 49.3L0.7 18.9C0.3 20.4 0.1 21.9 0 23.4L26.6 50C28.1 49.9 29.6 49.7 31.1 49.3Z" fill="#5E6AD2"/>
<path d="M21.1 49.8L0.200001 28.9C1 34 3.3 38.8 7.2 42.8C11.2 46.6 16.1 49 21.1 49.8Z" fill="#5E6AD2"/>
</g>
<defs>
<clipPath id="clip0_1_49">
<rect width="50" height="50" fill="white"/>
</clipPath>
</defs>
</svg>
