<svg width="50" height="50" viewBox="0 0 50 50" fill="none" xmlns="http://www.w3.org/2000/svg">
<path d="M39.7629 3.89192C37.4559 1.26245 33.2857 0.135132 27.9508 0.135132H12.4674C11.9395 0.135151 11.429 0.323466 11.0276 0.66622C10.6262 1.00897 10.3602 1.48368 10.2775 2.005L3.83045 42.8936C3.70231 43.6999 4.32664 44.43 5.14386 44.43H14.7028L17.1035 29.203L17.029 29.6798C17.2 28.6035 18.1205 27.8096 19.2106 27.8096H23.753C32.6765 27.8096 39.6637 24.1851 41.7048 13.7002C41.7654 13.3901 41.8179 13.0883 41.8632 12.7934C41.6056 12.657 41.6056 12.657 41.8632 12.7934C42.471 8.91808 41.8591 6.28016 39.7629 3.89192Z" fill="#27346A"/>
<path d="M20.7611 11.3974C21.0224 11.2729 21.3082 11.2085 21.5977 11.2086H33.7364C35.1738 11.2086 36.5146 11.3022 37.7397 11.4994C38.0826 11.554 38.4236 11.6193 38.7624 11.6951C39.2426 11.801 39.7172 11.9307 40.1846 12.0836C40.7869 12.2848 41.3478 12.5191 41.8634 12.7934C42.471 8.91659 41.8591 6.28016 39.7629 3.89192C37.4546 1.26245 33.2857 0.135132 27.9508 0.135132H12.466C11.3758 0.135132 10.4483 0.92884 10.2775 2.005L3.83045 42.8921C3.70231 43.6997 4.32664 44.4288 5.14254 44.4288H14.7028L19.6834 12.8444C19.7324 12.534 19.8561 12.2401 20.0438 11.988C20.2315 11.7359 20.4777 11.5332 20.7611 11.3974Z" fill="#27346A"/>
<path d="M41.7049 13.7001C39.6638 24.1836 32.6767 27.8096 23.753 27.8096H19.2093C18.1193 27.8096 17.1986 28.6034 17.0292 29.6798L14.0426 48.6127C13.931 49.3183 14.4767 49.9577 15.1906 49.9577H23.2486C23.7101 49.9576 24.1565 49.7928 24.5075 49.493C24.8584 49.1931 25.0908 48.7779 25.163 48.322L25.2414 47.9114L26.7601 38.2862L26.858 37.7543C26.9301 37.2984 27.1625 36.8832 27.5134 36.5833C27.8643 36.2835 28.3107 36.1187 28.7722 36.1185H29.9782C37.784 36.1185 43.8961 32.9473 45.6822 23.7758C46.4277 19.943 46.0419 16.743 44.0698 14.4953C43.4716 13.8145 42.7287 13.2523 41.8633 12.7933C41.8164 13.0897 41.7656 13.39 41.7049 13.7001Z" fill="#2790C3"/>
<path d="M39.7271 11.9418C39.4089 11.8488 39.0876 11.7666 38.7639 11.6951C38.4249 11.6206 38.0839 11.5557 37.7412 11.5007C36.5147 11.3022 35.175 11.2085 33.7362 11.2085H21.599C21.3093 11.2078 21.0233 11.2729 20.7624 11.3987C20.4787 11.5342 20.2322 11.7367 20.0444 11.9889C19.8566 12.241 19.7331 12.5351 19.6846 12.8458L17.1048 29.203L17.0303 29.6799C17.2 28.6035 18.1205 27.8097 19.2107 27.8097H23.7544C32.678 27.8097 39.665 24.1852 41.7061 13.7002C41.7669 13.3901 41.8179 13.0896 41.8647 12.7934C41.3478 12.5206 40.7884 12.2848 40.1859 12.085C40.0339 12.0346 39.881 11.9868 39.7273 11.9418" fill="#1F264F"/>
</svg>
