<svg width="800" height="800" viewBox="0 0 800 800" fill="none" xmlns="http://www.w3.org/2000/svg">
<g clip-path="url(#clip0_214_455)">
<path d="M17.279 548.87C-12.6619 569.837 -7.11813 605.96 61.1922 628.547C129.503 651.137 208.901 655.808 278.762 643.225C282.755 643.225 276.767 643.225 278.762 643.225V571.935L210.897 595C184.948 603.387 158.999 605.485 133.05 599.192C113.09 592.902 117.082 580.323 141.035 569.838L278.762 519.515V441.935L87.1412 511.13C63.1885 519.515 39.2357 532.097 17.279 548.87ZM480.365 234.355V437.743C562.202 479.678 626.077 437.743 626.077 328.71C626.077 217.581 588.152 167.258 478.37 127.419C420.482 106.451 360.602 87.5807 300.72 75V680.968L440.445 725V215.484C440.445 192.419 440.445 175.645 456.412 181.936C478.37 188.226 480.365 211.29 480.365 234.355ZM739.852 500.645C681.967 479.678 620.09 471.29 560.207 477.58C526.947 479.765 495.735 489.673 464.397 500.645V582.42L594.14 532.097C620.09 523.71 646.037 521.613 671.987 527.903C691.947 534.193 687.955 546.775 664.002 557.258L464.397 634.837V714.515L739.852 607.58C759.812 599.192 777.777 588.71 793.747 571.935C807.72 550.967 801.73 521.613 739.852 500.645Z" fill="#0070D1"/>
</g>
<defs>
<clipPath id="clip0_214_455">
<rect width="800" height="800" fill="white"/>
</clipPath>
</defs>
</svg>
